<svg preserveAspectRatio="none" width="100%" height="100%" overflow="visible" style="display: block;" viewBox="0 0 34 34" fill="none" xmlns="http://www.w3.org/2000/svg">
<g id="Link">
<rect width="34" height="34" rx="10" fill="var(--fill-0, #F3F5F9)"/>
<path id="Vector" d="M22.2568 12.1357C22.1473 12.0764 22.0419 12.0113 21.9386 11.9409C21.6396 11.7328 21.3659 11.4876 21.1217 11.2107C20.5126 10.4772 20.2855 9.73311 20.2014 9.2122H20.2055C20.1355 8.77974 20.1639 8.5 20.168 8.5H17.394V19.7896C17.394 19.9412 17.394 20.091 17.3879 20.2389C17.3879 20.2574 17.3869 20.2744 17.3859 20.2942C17.3859 20.3024 17.3859 20.3109 17.3839 20.3193C17.3839 20.3215 17.3839 20.3237 17.3839 20.3257C17.3545 20.7308 17.2309 21.1221 17.0241 21.4652C16.8173 21.8083 16.5346 22.0928 16.1981 22.2933C15.8484 22.5029 15.4532 22.6127 15.0508 22.6122C13.7582 22.6122 12.7107 21.503 12.7107 20.1331C12.7107 18.7633 13.7582 17.6541 15.0508 17.6541C15.2951 17.6538 15.5383 17.6943 15.7714 17.7741L15.7745 14.8014C15.0681 14.7053 14.3505 14.7645 13.6674 14.9749C12.984 15.1852 12.3494 15.5424 11.8037 16.024C11.3255 16.4611 10.9236 16.9829 10.6159 17.5655C10.4987 17.778 10.0569 18.6319 10.0034 20.0176C9.96975 20.8042 10.1941 21.6191 10.3012 21.9559V21.963C10.3685 22.1613 10.6292 22.8381 11.0543 23.4086C11.3971 23.8662 11.802 24.2683 12.256 24.6017V24.5946L12.2627 24.6017C13.6058 25.5622 15.0944 25.4992 15.0944 25.4992C15.3528 25.4882 16.2163 25.4992 17.1964 25.0101C18.2839 24.4679 18.9031 23.66 18.9031 23.66C19.2994 23.1774 19.6136 22.6273 19.8335 22.0334C20.0849 21.339 20.168 20.506 20.168 20.1732V14.1837C20.2024 14.205 20.6504 14.5169 20.6504 14.5169C20.6504 14.5169 21.296 14.9526 22.3034 15.2362C23.026 15.4382 24 15.4807 24 15.4807V12.5823C23.6595 12.6212 22.9662 12.5079 22.2568 12.1357Z" fill="var(--fill-0, black)"/>
</g>
</svg>
